<svg width="36" height="31" viewBox="0 0 36 31" fill="none" xmlns="http://www.w3.org/2000/svg">
<path d="M19.1315 25.5535C18.114 25.5378 17.1329 25.1719 16.3535 24.5175L11.2205 19.9965C10.8294 19.631 10.3211 19.4161 9.78639 19.3903C9.25163 19.3645 8.72507 19.5294 8.30052 19.8555L0.998523 25.2285V28.7135C0.974503 29.1626 1.12938 29.6029 1.42926 29.938C1.72913 30.2731 2.14957 30.4757 2.59852 30.5015C2.64652 30.5015 2.69852 30.5015 2.74352 30.5015H28.5985C29.1076 30.5268 29.6069 30.355 29.9927 30.0219C30.3786 29.6888 30.6213 29.2199 30.6705 28.7125V19.5775L21.3935 24.9455C20.7106 25.3543 19.9274 25.5649 19.1315 25.5535Z" fill="black"/>
<path d="M18.7556 16.4233C19.8999 16.4233 20.8276 15.4956 20.8276 14.3513C20.8276 13.207 19.8999 12.2793 18.7556 12.2793C17.6113 12.2793 16.6836 13.207 16.6836 14.3513C16.6836 15.4956 17.6113 16.4233 18.7556 16.4233Z" fill="black"/>
<path d="M35.5668 3.94428C35.4183 3.742 35.2279 3.57419 35.0085 3.45234C34.7892 3.33048 34.546 3.25747 34.2958 3.23828L8.63284 0.271275C8.3886 0.236856 8.13997 0.250965 7.9012 0.312793C7.66242 0.37462 7.43818 0.482951 7.24134 0.631581C7.0445 0.780211 6.87892 0.96622 6.75408 1.17895C6.62924 1.39168 6.54761 1.62694 6.51384 1.87128L6.08984 5.54428H28.5968C29.6305 5.56765 30.616 5.98544 31.3515 6.71203C32.0871 7.43863 32.5169 8.41901 32.5528 9.45228V26.0763C32.5528 25.9823 32.9768 25.8883 33.1648 25.6993C33.3572 25.5483 33.5124 25.3552 33.6185 25.1349C33.7246 24.9145 33.7787 24.6728 33.7768 24.4283L35.9898 5.30928C36.0141 5.06503 35.9892 4.8184 35.9165 4.58396C35.8439 4.34951 35.725 4.132 35.5668 3.94428Z" fill="black"/>
<path d="M28.5956 7.42969H2.74256C2.24434 7.47008 1.7821 7.70518 1.45602 8.08405C1.12995 8.46291 0.966307 8.955 1.00056 9.45369V22.8747L7.21656 18.3537C7.98198 17.7858 8.91974 17.4991 9.87184 17.5419C10.8239 17.5847 11.7322 17.9544 12.4436 18.5887L17.6236 23.1097C18.0045 23.4332 18.4769 23.6298 18.9749 23.6719C19.473 23.714 19.9717 23.5996 20.4016 23.3447L30.6676 17.3647V9.45369C30.633 8.92005 30.4022 8.41808 30.0196 8.0444C29.6371 7.67073 29.1299 7.45177 28.5956 7.42969ZM18.7536 18.3077C17.9711 18.3077 17.2063 18.0757 16.5557 17.641C15.9052 17.2063 15.3981 16.5884 15.0987 15.8656C14.7993 15.1427 14.7209 14.3473 14.8736 13.5799C15.0262 12.8125 15.403 12.1076 15.9563 11.5544C16.5095 11.0011 17.2144 10.6243 17.9818 10.4717C18.7492 10.3191 19.5446 10.3974 20.2675 10.6968C20.9903 10.9962 21.6082 11.5033 22.0429 12.1538C22.4775 12.8044 22.7096 13.5693 22.7096 14.3517C22.7093 15.4007 22.2924 16.4067 21.5505 17.1484C20.8087 17.89 19.8026 18.3067 18.7536 18.3067V18.3077Z" fill="black"/>
</svg>
