<svg width="133" height="132" viewBox="0 0 133 132" fill="none" xmlns="http://www.w3.org/2000/svg">
    <path d="M66.5 132C103.227 132 133 102.451 133 66C133 29.5492 103.227 0 66.5 0C29.7731 0 0 29.5492 0 66C0 102.451 29.7731 132 66.5 132Z" fill="black"/>
    <path d="M21.2812 92.9573V40.6767H40.0576V45.9864C42.8698 43.5358 45.4933 41.7659 47.9283 40.6767C50.3632 39.5875 52.9868 39.043 55.7989 39.043C59.7427 39.043 63.3609 39.9108 66.636 41.6468C69.9111 43.3826 72.2775 45.6971 73.7522 48.5903C76.4958 45.3228 79.325 42.9061 82.223 41.3575C85.1209 39.8088 88.3446 39.043 91.9112 39.043C95.7523 39.043 99.1646 39.8258 102.131 41.4085C105.097 42.9913 107.43 45.2206 109.144 48.0968C110.859 50.9729 111.716 54.3255 111.716 58.1377V92.9573H92.9401V63.1922C92.9401 60.299 92.1856 58.0185 90.6766 56.3507C89.1676 54.6829 87.11 53.849 84.5036 53.849C82.7546 53.849 81.2456 54.1894 79.9595 54.8871C78.6735 55.5849 77.6618 56.5549 76.9416 57.7802C76.2214 59.0055 75.8613 60.418 75.8613 62.0178V92.9573H57.0849V63.039C57.0849 60.282 56.3647 58.0525 54.9072 56.3677C53.4497 54.6829 51.392 53.849 48.7513 53.849C47.0023 53.849 45.4762 54.2064 44.1729 54.9382C42.8698 55.6699 41.858 56.691 41.1379 57.9845C40.4177 59.2779 40.0576 60.7755 40.0576 62.4773V92.9573H21.2812Z" fill="#51F7C0"/>
</svg>
