<svg width="364" height="380" viewBox="0 0 364 380" fill="none" xmlns="http://www.w3.org/2000/svg">
<g opacity="0.3">
<path opacity="0.3" d="M222.178 321.764C227.506 311.735 228.66 300.015 225.388 289.184C222.115 278.353 214.684 269.298 204.729 264.011C194.774 258.723 183.11 257.636 172.304 260.989C161.498 264.343 152.434 271.861 147.107 281.891L137.064 300.799C134.21 305.877 129.525 309.669 123.983 311.389C118.44 313.109 112.464 312.625 107.293 310.038L97.2501 328.947L135.412 349.216C166.459 365.706 205.563 353.046 222.178 321.764Z" fill="#84C7AC"/>
<path opacity="0.3" d="M53.1004 4.199C51.0511 3.73118 48.9058 3.88498 46.9359 4.64093C44.966 5.39688 43.26 6.72103 42.0335 8.44597C40.807 10.1709 40.1152 12.2192 40.0455 14.3317C39.9758 16.4443 40.5314 18.5263 41.6419 20.3145C42.7525 22.1027 44.3681 23.5167 46.2847 24.3778C48.2012 25.239 50.3325 25.5085 52.409 25.1523C54.4856 24.7962 56.4142 23.8303 57.9509 22.3769C59.4876 20.9235 60.5635 19.0478 61.0424 16.987C61.362 15.6184 61.4099 14.2016 61.1835 12.8177C60.9572 11.4338 60.4609 10.1101 59.7232 8.92225C58.9855 7.73441 58.0208 6.7058 56.8844 5.89532C55.748 5.08484 54.4621 4.50839 53.1004 4.199Z" fill="#84C7AC"/>
<path opacity="0.3" d="M22.2904 183.729C24.1732 180.182 24.5802 176.037 23.4219 172.207C22.2636 168.377 19.6348 165.175 16.1138 163.305C12.5928 161.436 8.46787 161.052 4.64628 162.238C0.82468 163.425 -2.38065 166.084 -4.26466 169.631C-6.14868 173.178 -6.5571 177.322 -5.40014 181.153C-4.24317 184.984 -1.61558 188.186 1.90477 190.057C5.42512 191.928 9.54992 192.313 13.3719 191.128C17.1939 189.943 20.4001 187.285 22.2854 183.739L22.2904 183.729Z" fill="#84C7AC"/>
<path opacity="0.3" d="M115.87 82.9239C117.887 82.2996 119.678 81.0896 121.017 79.4471C122.355 77.8047 123.18 75.8035 123.389 73.6968C123.597 71.5901 123.178 69.4725 122.186 67.6121C121.194 65.7516 119.673 64.2319 117.816 63.2452C115.958 62.2585 113.847 61.8491 111.75 62.0689C109.653 62.2887 107.665 63.1278 106.036 64.4799C104.407 65.8321 103.211 67.6365 102.599 69.665C101.988 71.6935 101.988 73.8549 102.6 75.8756C103.425 78.5787 105.284 80.8375 107.77 82.1582C110.257 83.4789 113.169 83.7542 115.87 82.9239Z" fill="#84C7AC"/>
<path opacity="0.3" d="M107.432 -44.0273C76.0103 -59.2823 41.1931 -62.034 10.3589 -58.4276C1.72486 -35.1169 -8.15025 -12.2823 -19.2235 9.97704C-15.171 11.5406 -11.4846 13.9213 -8.39051 16.9731C-5.29645 20.0248 -2.86007 23.6833 -1.2309 27.7238C0.398263 31.7644 1.18584 36.1018 1.08347 40.4698C0.981098 44.8378 -0.00905304 49.1442 -1.82621 53.1248C-3.64336 57.1053 -6.24916 60.6759 -9.48368 63.6175C-12.7182 66.559 -16.5132 68.8094 -20.6356 70.2306C-24.7581 71.6517 -29.1211 72.2136 -33.4569 71.8817C-37.7926 71.5498 -42.0095 70.3311 -45.8488 68.3005C-46.7502 67.8218 -47.5041 67.0728 -48.3588 66.5061C-56.5043 81.5671 -64.7909 96.3477 -73.0274 110.293C-65.5525 119.42 -60.8869 128.77 -59.6701 138.318C-57.2042 157.655 -68.6109 172.739 -72.17 176.91C-83.9914 190.764 -83.2909 211.63 -69.1707 223.048C-61.2684 229.429 -52.7772 235.041 -43.811 239.807C33.367 280.8 131.575 251.98 173.276 171.952C215.554 90.7736 179.608 -9.1343 107.432 -44.0273ZM103.511 42.0666C111.591 39.6379 120.28 40.5061 127.687 44.4822C135.093 48.4584 140.618 55.2207 143.06 63.2978C145.501 71.3749 144.661 80.1131 140.723 87.6112C136.784 95.1092 130.066 100.76 122.03 103.335L122.025 103.344C113.941 105.78 105.246 104.915 97.8337 100.938C90.4214 96.9619 84.8921 90.1955 82.4502 82.1131C80.0082 74.0307 80.8514 65.2869 84.7961 57.7862C88.7408 50.2855 95.4674 44.6354 103.511 42.0666ZM19.5815 7.50204C21.0203 1.32027 24.2494 -4.30565 28.8606 -8.66441C33.4719 -13.0232 39.2582 -15.919 45.4879 -16.9858C51.7176 -18.0526 58.111 -17.2424 63.8598 -14.6577C69.6085 -12.073 74.4544 -7.82983 77.7847 -2.46472C81.1151 2.90039 82.7803 9.14654 82.5699 15.484C82.3595 21.8214 80.2829 27.9655 76.6027 33.1395C72.9225 38.3134 67.8039 42.2849 61.8941 44.5517C55.9843 46.8185 49.5487 47.2789 43.401 45.8746C39.317 44.9442 35.4607 43.2131 32.0528 40.7804C28.645 38.3478 25.7523 35.2612 23.5404 31.6974C21.3285 28.1336 19.8407 24.1625 19.1622 20.0112C18.4837 15.86 18.6278 11.61 19.5862 7.50453L19.5815 7.50204ZM4.65172 212.633C-1.49732 211.229 -7.08223 208.022 -11.3967 203.419C-15.7112 198.816 -18.5613 193.023 -19.5868 186.772C-20.6122 180.522 -19.7668 174.095 -17.1575 168.304C-14.5482 162.514 -10.2922 157.62 -4.92786 154.241C0.436521 150.863 6.66835 149.151 12.9794 149.323C19.2905 149.496 25.3974 151.544 30.5277 155.209C35.6579 158.874 39.5811 163.992 41.8011 169.914C44.0211 175.836 44.4382 182.298 42.9995 188.481C41.062 196.765 35.9371 203.959 28.7484 208.486C21.5597 213.014 12.8941 214.505 4.65172 212.633ZM116.695 177.866C112.376 182.518 106.788 185.788 100.639 187.263C94.4888 188.738 88.0529 188.351 82.1446 186.152C76.2363 183.952 71.1211 180.039 67.4458 174.906C63.7705 169.773 61.7002 163.652 61.4966 157.316C61.293 150.98 62.9653 144.714 66.3021 139.311C69.6389 133.907 74.4902 129.609 80.2427 126.959C85.9951 124.309 92.3903 123.427 98.6196 124.424C104.849 125.421 110.632 128.252 115.239 132.56C118.3 135.419 120.767 138.859 122.497 142.684C124.227 146.509 125.187 150.644 125.323 154.852C125.458 159.059 124.765 163.258 123.285 167.207C121.804 171.156 119.565 174.778 116.695 177.866Z" fill="#84C7AC"/>
<path opacity="0.3" d="M100.696 148.242C99.1599 146.806 97.2318 145.862 95.1552 145.53C93.0785 145.198 90.9464 145.492 89.0287 146.375C87.111 147.259 85.4938 148.692 84.3814 150.493C83.2691 152.295 82.7117 154.384 82.7797 156.496C82.8477 158.608 83.5379 160.649 84.7633 162.36C85.9887 164.071 87.694 165.375 89.6638 166.109C91.6335 166.842 93.7791 166.971 95.8292 166.479C97.8794 165.987 99.7421 164.896 101.182 163.345C102.138 162.316 102.885 161.108 103.378 159.792C103.872 158.476 104.102 157.076 104.057 155.673C104.012 154.271 103.692 152.892 103.115 151.617C102.538 150.342 101.716 149.195 100.696 148.242Z" fill="#84C7AC"/>
<path opacity="0.3" d="M262.901 222.177C264.608 219.029 266.349 215.961 268.036 212.784C306.973 139.465 348.857 48.8305 325.589 36.4718C302.32 24.113 250.674 109.562 211.729 182.885C210.042 186.062 208.479 189.216 206.822 192.399L262.901 222.177Z" fill="#84C7AC"/>
<path opacity="0.3" d="M214.772 245.1C224.152 250.165 232.083 257.546 237.821 266.553C242.733 258.284 247.685 249.709 252.615 240.958L197.02 211.429C192.526 220.412 188.193 229.315 184.097 238.017C194.77 237.729 205.325 240.166 214.772 245.1Z" fill="#84C7AC"/>
</g>
</svg>
